<?xml version="1.0" encoding="utf-8"?>
<!-- Generator: Adobe Illustrator 24.0.0, SVG Export Plug-In . SVG Version: 6.00 Build 0)  -->
<svg version="1.1" id="Capa_1" xmlns="http://www.w3.org/2000/svg" xmlns:xlink="http://www.w3.org/1999/xlink" x="0px" y="0px"
	 viewBox="0 0 1136.6 285" style="enable-background:new 0 0 1136.6 285;" xml:space="preserve">
<style type="text/css">
	.st0{fill:#FFFFFF;}
	.st1{fill-rule:evenodd;clip-rule:evenodd;fill:#FFFFFF;}
	.st2{enable-background:new    ;}
</style>
<symbol  id="LOGO_Flexo_Print" viewBox="-127.4 -26.6 254.7 53.2">
	<g>
		<polygon class="st0" points="16.2,-17.9 11.7,-17.9 11.7,-19.1 13.4,-19.1 13.4,-25.6 14.7,-25.6 14.7,-19.1 16.2,-19.1 		"/>
		<polygon class="st0" points="-25.5,-25.6 -20.7,-25.6 -20.7,-24.4 -24.1,-24.4 -24.1,-22.4 -20.7,-22.4 -20.7,-21.1 -24.1,-21.1 
			-24.1,-19.1 -20.7,-19.1 -20.7,-17.9 -25.5,-17.9 		"/>
		<path class="st0" d="M19.3-17.9L16-25.5h1.2l1,2.2h3.3l1-2.2h1.4l-3.3,7.6H19.3z M18.7-22.1l1.1,2.6l1.1-2.6H18.7z"/>
		<path class="st0" d="M27.8-21.2L27.8-21.2c-0.2,0.1-0.4,0.1-0.5,0.2c-0.4,0.1-0.8,0.2-1,0.4c-0.3,0.2-0.4,0.4-0.4,0.6
			c0,0.6,0.4,1,1.1,1c0.6,0,1-0.3,1.1-1v-0.2h1.2v0.3c-0.1,1.4-0.9,2.1-2.2,2.1c-1.4,0-2.3-0.9-2.3-2.2c0-1,0.5-1.6,1.9-2h0.1
			c1.1-0.3,1.7-0.5,1.7-1.2s-0.5-1.1-1.3-1.1c-0.7,0-1.2,0.4-1.3,1.2v0.2h-1.3v-0.3c0-1.4,1-2.5,2.5-2.5s2.5,1,2.5,2.6
			C29.4-22.2,29-21.6,27.8-21.2z"/>
		<path class="st0" d="M-3.3-24.5c-0.1,0-0.3,0-0.4,0.1c0.7,0.7,1.1,1.5,1.1,2.5c0,2.3-1.8,4-4.4,4c-1.2,0-2.3-0.4-3-1.1
			c-0.9-0.8-1.4-1.8-1.4-2.8c0-2.2,1.9-4,4.4-4c0.8,0,1.5,0.2,2.2,0.6c0.5-0.3,1.1-0.5,1.6-0.5h0.6v1.1h-0.3
			C-3-24.5-3.2-24.5-3.3-24.5z M-5.9-24.3c-1.3-0.4-2.7,0-3.5,1c0.4,0.1,0.7,0.2,1,0.2C-7.4-23.1-6.8-23.6-5.9-24.3z M-10-21.6
			c0,1.3,1.2,2.7,3.1,2.7c1.8,0,3-1.4,3.1-2.6c-0.1-0.9-0.4-1.5-1-2.1C-6-22.5-7-21.9-8.4-21.9c-0.5,0-1-0.1-1.5-0.2
			C-10-22-10-21.8-10-21.6z"/>
		<path class="st0" d="M3.1-22.5c0-1.4-0.4-1.9-1.6-1.9c-0.6,0-1.1,0.3-1.4,0.8c-0.2,0.3-0.2,0.6-0.2,1v4.8L-1.3-18v-4.7
			c0-2,0.9-3,2.8-3c1.8,0,2.7,1,2.7,3v4.8H3.1V-22.5z"/>
		<polygon class="st0" points="-19.6,-19.1 -18.1,-19.1 -18.1,-25.6 -16.7,-25.6 -16.7,-19.1 -15.1,-19.1 -15.1,-17.9 -19.6,-17.9 
					"/>
		<rect x="-14.1" y="-25.6" class="st0" width="1.3" height="7.6"/>
		<polygon class="st0" points="5.9,-25.6 10.7,-25.6 10.7,-24.4 7.2,-24.4 7.2,-22.4 10.7,-22.4 10.7,-21.1 7.2,-21.1 7.2,-19.1 
			10.7,-19.1 10.7,-17.9 5.9,-17.9 		"/>
		<polygon class="st0" points="87.7,-21.1 84.6,-21.1 84.6,-17.9 83.2,-17.9 83.2,-25.6 84.6,-25.6 84.6,-22.4 87.7,-22.4 
			87.7,-25.6 89.1,-25.6 89.1,-17.9 87.7,-17.9 		"/>
		<rect x="104.4" y="-25.6" class="st0" width="1.3" height="7.6"/>
		<polygon class="st0" points="112.7,-17.9 110.4,-23.5 108.2,-17.9 106.9,-17.9 110,-25.6 111,-25.6 114.1,-17.9 		"/>
		<path class="st0" d="M100.9-21.2L100.9-21.2c-0.2,0.1-0.3,0.1-0.5,0.1c-0.4,0.1-0.8,0.2-1,0.4c-0.2,0.2-0.4,0.4-0.4,0.6
			c0,0.6,0.4,1,1,1c0.4,0,0.8-0.1,1-1v-0.2h1.2v0.3c-0.1,1.3-0.9,2.1-2.1,2.1c-1.3,0-2.4-0.9-2.4-2.2c0-1,0.5-1.6,1.8-2
			c1.1-0.3,1.6-0.5,1.6-1.3c0-0.7-0.5-1.1-1.3-1.1c-0.7,0-1.2,0.4-1.2,1.1v0.3h-1.1v-0.3c0-1.4,1-2.5,2.3-2.5c1.5,0,2.5,1,2.5,2.6
			C102.4-22.2,102-21.6,100.9-21.2z"/>
		<polygon class="st0" points="91.2,-25.6 95.7,-25.6 95.7,-24.4 92.6,-24.4 92.6,-22.4 95.7,-22.4 95.7,-21.1 92.6,-21.1 
			92.6,-19.1 95.7,-19.1 95.7,-17.9 91.2,-17.9 		"/>
		<path class="st0" d="M125.9-21.2L125.9-21.2c-0.2,0.1-0.3,0.1-0.5,0.1c-0.4,0.1-0.8,0.2-1,0.4c-0.2,0.2-0.4,0.4-0.4,0.6
			c0,0.6,0.4,1,1,1c0.4,0,0.8-0.1,1-1v-0.2h1.2v0.3c-0.1,1.3-0.9,2.1-2.1,2.1c-1.3,0-2.4-0.9-2.4-2.2c0-1,0.5-1.6,1.8-2
			c1.1-0.3,1.6-0.5,1.6-1.3c0-0.7-0.5-1.1-1.3-1.1c-0.7,0-1.2,0.4-1.2,1.1v0.3h-1.1v-0.3c0-1.4,1-2.5,2.3-2.5c1.5,0,2.5,1,2.5,2.6
			C127.4-22.2,127-21.6,125.9-21.2z"/>
		<path class="st0" d="M117-17.9l-3.2-7.6h1.4l0.9,2.2h3.1l0.9-2.2h1.3l-3.2,7.6H117z M116.6-22.1l1,2.6l1.1-2.6H116.6z"/>
		<path class="st0" d="M80-18.7L80-18.7c-0.7,0.5-1.6,0.8-2.8,0.8h-2.5v-7.6h2.2c1.1,0,2,0,2.9,0.6c1,0.6,1.6,1.8,1.6,3.2
			C81.4-20.5,80.9-19.5,80-18.7z M80.2-21.8c0-1.7-1-2.6-2.8-2.6h-1.3l0.1,5.3h1.2c0.9,0,1.5,0,2.1-0.6
			C79.9-20.1,80.2-20.8,80.2-21.8z"/>
		<path class="st0" d="M38.9-17.9l-3.2-7.6h1.4l0.9,2.2h3.1l0.9-2.2h1.3l-3.2,7.6H38.9z M38.6-22.1l1,2.6l1.1-2.6H38.6z"/>
		<polygon class="st0" points="51.6,-19.1 53.1,-19.1 53.1,-25.6 54.4,-25.6 54.4,-19.1 55.9,-19.1 55.9,-17.9 51.6,-17.9 		"/>
		<path class="st0" d="M48.9-22.5c0-1.4-0.4-1.9-1.5-1.9c-0.6,0-1,0.2-1.3,0.8c-0.2,0.3-0.2,0.6-0.2,1v4.8L44.7-18v-4.7
			c0-2,0.9-3,2.8-3c1.2,0,2.7,0.5,2.7,3v4.8h-1.3V-22.5z"/>
		<path class="st0" d="M60.8-17.9c-1.2,0-2.2-0.4-2.9-1.1c-0.8-0.8-1.2-1.7-1.2-2.8c0-2.2,1.8-4,4.2-4c1.3,0,2.4,0.4,3.1,1.3
			c0.7,0.7,1.1,1.6,1.1,2.7s-0.4,2.1-1.3,2.8C62.9-18.2,62-17.9,60.8-17.9z M63.9-21.6c0-1.6-1.3-2.8-2.9-2.8l0,0
			c-0.8-0.1-1.6,0.2-2.1,0.7s-0.8,1.2-0.8,2c0,0.7,0.4,1.5,1.1,2.1c0.5,0.3,1.1,0.7,1.8,0.7C62.5-18.9,63.9-20.2,63.9-21.6z"/>
		<path class="st0" d="M68.9-17.9l-3.2-7.6h1.4l0.9,2.2h3.1l0.9-2.2h1.3l-3.2,7.6H68.9z M68.6-22.1l1,2.6l1.1-2.6H68.6z"/>
	</g>
	<path class="st1" d="M-103.9-11.7c-1.6,3.2-2.4,6.8-2.3,10.6c0,0.7,0.1,1.4,0.2,2c0.2-3.9,1.5-7.6,3.7-10.8
		C-102.7-10.5-103.4-11.1-103.9-11.7 M-53.9,14.4c3.6-4.3,5.7-9.7,5.5-15.5C-48.8-15.2-62.1-26.6-78-26.6c-8.3,0-15.6,3.1-20.7,8
		c0.9,0.8,1.7,1.7,2.5,2.5c4.6-3.3,10.5-5.3,17-5.3c15.2,0,27.9,10.9,28.3,24.3C-50.8,7.1-51.9,11-53.9,14.4z"/>
	<path class="st1" d="M-93.4,2c-0.2,0.9-0.2,1.9-0.2,2.9c0.3,8.9,8.7,16.2,18.8,16.2c7,0,13.4-3.3,16.8-8.6
		c2.2-3.4,3.3-7.3,3.2-11.3c-0.2-6.8-3.9-13.1-9.8-17.5c0-0.2,6.7,4.9,8.6,8.1c6.5,11.3,1,22.3,1,22.3c-3.6,7.6-12,12.5-21.4,12.5
		c-13.1,0-24.1-9.4-24.4-21c-0.1-3.6,0.8-7,2.5-10C-96.7-2.6-95-0.2-93.4,2 M-74.1-15.6c6.7,0.4,12.1,5.4,12.3,11.3
		c0,0.1,0,0.3,0,0.4c0.1,2.6-1.1,4.9-3,6.5l0,0h-0.1c-1.9,1.5-4.2,2.2-6.7,2.1c4-0.8,7-4,6.8-7.9c-0.1-4.2-3.9-7.8-8.7-8.1
		c-1.2-0.1-2.4-0.1-3.6,0c-4.5,0.3-8.4,2-11.3,4.6c-0.8-0.9-1.5-1.8-2.2-2.7c-0.5-0.6-0.9-1.2-1.4-1.7c4-2.8,9-4.4,14.5-4.4
		C-76.4-15.6-75.2-15.6-74.1-15.6z"/>
	<path class="st1" d="M-127.4-20.2c0,0,10-3.2,18.4,2.5S-92.7,3.5-87,7.1c5.6,3.6,12.8,5.6,18.8,2.6c6.1-2.9,7.9-11,7.9-11
		s-5.8,12.1-18.5,4.5c-12.7-7.7-16.4-22-29.3-26.4C-121.1-27.8-127.4-20.2-127.4-20.2"/>
	<path class="st0" d="M35.3-2.5c0.1,2.3-0.4,4-1.4,5.1s-2.4,1.7-4.2,1.7c-1.9,0-3.3-0.6-4.4-1.7c-1-1.1-1.6-2.8-1.7-5.1
		c0-2.2,0.4-3.9,1.4-5s2.4-1.7,4.3-1.7c1.8,0,3.3,0.6,4.3,1.7S35.2-4.7,35.3-2.5 M38.9-2.5c-0.1-3-1-5.3-2.8-6.9s-4.1-2.4-7-2.4
		c-3,0-5.3,0.8-6.9,2.5s-2.4,3.9-2.3,6.8s1,5.2,2.8,6.9c1.8,1.6,4.1,2.4,7,2.4s5.1-0.8,6.8-2.4S39,0.5,38.9-2.5z M18.9-11.3h-4.4
		l-5,6.6L4-11.3h-4.1l7.6,8.7l-7,8.9h4.4l4.9-6.6l5.4,6.6h4.1l-7.6-8.7L18.9-11.3z M-4.4-0.5c0,0.8-0.1,1.5-0.3,2.1
		c-0.2,0.5-0.5,1-0.9,1.4s-0.9,0.8-1.6,1c-0.6,0.2-1.5,0.3-2.4,0.3c-1,0-1.8-0.1-2.4-0.4c-0.7-0.2-1.3-0.6-1.9-1
		c-0.5-0.5-1-1-1.3-1.5c-0.3-0.6-0.5-1.2-0.6-2L-4.4-0.5L-4.4-0.5z M-9-11.7c-3.4,0-6,0.8-7.8,2.4s-2.7,3.8-2.6,6.7s1.1,5.2,2.9,6.9
		c1.9,1.7,4.3,2.5,7.2,2.5c1.3,0,2.5-0.2,3.5-0.5s1.9-0.8,2.6-1.5s1.3-1.5,1.7-2.5S-1,0.1-1-1.3v-1.6h-14.7C-15.8-5-15.2-6.5-14-7.6
		s2.9-1.6,5.1-1.6c0.8,0,1.6,0.1,2.3,0.2c0.8,0.1,1.4,0.3,2.1,0.6c0.7,0.2,1.2,0.5,1.7,0.7c0.4,0.3,0.7,0.5,1,0.7h0.2l-0.1-3.2
		c-0.4-0.1-0.9-0.3-1.6-0.5c-0.6-0.2-1.2-0.4-1.7-0.5c-0.7-0.2-1.3-0.3-1.9-0.4C-7.4-11.6-8.1-11.7-9-11.7z M-23.5-11.3H-27
		l0.7,24.5h3.6L-23.5-11.3z M-27.7,10.4h-0.2c-0.3,0.1-0.8,0.2-1.4,0.3s-1.1,0.1-1.6,0.1c-1.5,0-2.6-0.3-3.3-0.8
		c-0.7-0.6-1-1.6-1.1-3.1V6.3h5.9l-0.1-2.5h-5.8l-0.5-15.2h-3.6l0.5,15.2h-2.4l0.1,2.5h2.4v0.6c0.1,2.1,0.7,3.7,2,4.8s3,1.7,5.3,1.7
		c0.7,0,1.3,0,1.9-0.1s1.2-0.1,1.7-0.2L-27.7,10.4z"/>
	<path class="st0" d="M113.8-10.6c-2,0-3.3,0.5-4.1,1.4s-0.8,2.4-0.1,4.4l3.5,9.8h-2.4l0.9,2.5h2.4l1.8,5.1h3.6l-1.8-5.1h6.6
		L123.3,5h-6.6l-3-8.4c-0.3-0.9-0.5-1.6-0.7-2.1c-0.1-0.5-0.2-0.9,0-1.4c0.1-0.4,0.3-0.6,0.8-0.8c0.4-0.2,1-0.3,1.9-0.3
		c0.6,0,1.2,0.1,1.8,0.2c0.6,0.1,1,0.3,1.3,0.4h0.2l-0.9-2.7c-0.7-0.2-1.5-0.3-2.2-0.4C115-10.5,114.4-10.6,113.8-10.6 M102.4-10.2
		h-3.6l3.6,10c0.3,0.8,0.5,1.6,0.7,2.3s0.2,1.3,0.1,1.7s-0.4,0.8-0.9,1c-0.4,0.2-1.1,0.3-2,0.3s-1.9-0.2-3-0.6S95.1,3.6,93.9,3
		l-4.7-13.2h-3.6l6.2,17.6h3.6l-0.7-2c1.3,0.8,2.6,1.4,3.8,1.8s2.4,0.6,3.5,0.6c2.1,0,3.5-0.6,4.3-1.7s0.8-2.8,0-5L102.4-10.2z
		 M88,10.3h-4.1l1.1,3.1h4.1L88,10.3z M80.4-10.2h-3.6L83,7.4h3.6L80.4-10.2z M79.1,4.2h-0.2c-0.2,0.1-0.5,0.1-0.8,0.1s-0.7,0-1.1,0
		c-1,0-2-0.2-3.1-0.5s-2.2-0.9-3.3-1.5l-4.4-12.5h-3.6L69,7.4h3.6l-0.9-2.6c1.6,1,3,1.6,4.1,2s2.1,0.6,3,0.6c0.4,0,0.6,0,0.8,0
		s0.4,0,0.6-0.1L79.1,4.2z M58.5-1.3c0.7,2,0.9,3.6,0.5,4.7s-1.4,1.7-3.2,1.7c-1,0-2.1-0.2-3.1-0.6c-1.1-0.4-2.1-0.9-3.2-1.4L46-6.9
		c0.8-0.4,1.5-0.6,2.1-0.8c0.6-0.1,1.4-0.2,2.2-0.2c1.9,0,3.5,0.6,4.9,1.7S57.7-3.4,58.5-1.3z M62.3-0.9c-1-2.9-2.7-5.3-5-7
		s-4.8-2.6-7.4-2.6c-1.1,0-1.9,0.1-2.7,0.3s-1.5,0.5-2.3,0.9l-2.6-7.4h-3.6l8.5,24.1h3.7l-0.7-1.8c1.1,0.7,2.3,1.2,3.6,1.7
		C55.1,7.7,56.4,8,57.7,8c2.4,0,4.1-0.8,4.9-2.4C63.3,3.9,63.3,1.7,62.3-0.9z"/>
	<g class="st2">
		<path class="st0" d="M-14.6,9.1v9.5h3.2c1,0,1.6-0.2,2.1-0.6s0.6-1,0.6-1.9c0-0.6-0.1-1.1-0.3-1.5S-9.6,14-10,14
			c0.8-0.2,1.3-0.9,1.3-2.1c0-0.1,0-0.1,0-0.1v-1.3c0-0.4,0.1-0.6,0.1-0.9C-8.5,9.4-8.4,9.2-8.3,9h-2.1c0,0.2-0.1,0.3-0.1,0.6
			c0,0.2,0,0.5,0,0.9v1v0.3c0,0.5-0.1,0.9-0.4,1.1c-0.2,0.2-0.7,0.3-1.4,0.3h-0.6V9.1H-14.6z M-12.9,14.6h1c0.5,0,0.9,0.1,1.1,0.3
			c0.2,0.2,0.3,0.6,0.3,1.1c0,0.5-0.1,0.8-0.3,1s-0.6,0.3-1.2,0.3h-0.9C-12.9,17.3-12.9,14.6-12.9,14.6z"/>
		<path class="st0" d="M-7.3,9.1v9.5h1.8V9.1H-7.3z"/>
		<path class="st0" d="M-3.9,9.1v9.5H1v-1.5h-3.2v-2.2h3v-1.5h-3V9.1H-3.9z"/>
		<path class="st0" d="M2.1,14.4v1.7h1.6v-1.7H2.1z M2.1,9.1v1.7h1.6V9.1H2.1z"/>
		<path class="st0" d="M7.9,12.1h1.6V11c0-0.2,0.1-0.4,0.2-0.6c0.1-0.1,0.3-0.2,0.5-0.2s0.4,0.1,0.5,0.2c0.1,0.1,0.1,0.5,0.1,1v0.4
			v6.8h1.7V12c0-0.7,0-1.1,0-1.3s-0.1-0.4-0.1-0.6c-0.2-0.4-0.4-0.7-0.8-0.8C11.2,9.1,10.8,9,10.2,9C9.5,9,8.9,9.2,8.5,9.6
			s-0.6,0.9-0.6,1.7V12.1z"/>
		<path class="st0" d="M13.9,11.9v1.5h3v-1.5H13.9z"/>
		<path class="st0" d="M18,13.9c0,1.1,0,2,0.1,2.5c0.1,0.5,0.2,1,0.4,1.2c0.2,0.4,0.5,0.6,0.8,0.8c0.3,0.2,0.8,0.2,1.3,0.2
			s1-0.1,1.3-0.2c0.3-0.2,0.6-0.4,0.8-0.8c0.2-0.3,0.3-0.7,0.4-1.2c0.1-0.5,0.1-1.4,0.1-2.5c0-1.2,0-2-0.1-2.5s-0.2-1-0.3-1.2
			c-0.2-0.4-0.5-0.7-0.9-0.9C21.6,9.1,21.1,9,20.6,9s-1,0.1-1.3,0.3s-0.6,0.5-0.9,0.9c-0.2,0.3-0.3,0.7-0.3,1.2
			C18,11.8,18,12.7,18,13.9z M21.4,13v2.6c0,0.7-0.1,1.2-0.2,1.4s-0.3,0.3-0.7,0.3c-0.3,0-0.5-0.1-0.7-0.3c-0.1-0.2-0.2-0.7-0.2-1.5
			v-0.9V12c0-0.7,0.1-1.2,0.2-1.4s0.3-0.3,0.7-0.3c0.3,0,0.5,0.1,0.7,0.3c0.1,0.2,0.2,0.7,0.2,1.5V13z"/>
		<path class="st0" d="M25.4,9.1c0.1,1.2,0.3,2.4,0.7,3.7c0.4,1.3,1,2.7,1.7,4.1h-3.5v1.6h5.2v-1.4c-0.6-1.2-1.2-2.5-1.5-3.8
			c-0.4-1.3-0.6-2.7-0.7-4.2H25.4z"/>
		<path class="st0" d="M30.5,12.2h1.6v-0.3c0-0.6,0.1-1,0.2-1.3s0.4-0.4,0.7-0.4s0.6,0.2,0.7,0.5c0.1,0.3,0.2,0.9,0.2,1.6
			c0,0.7-0.1,1.2-0.2,1.5c-0.2,0.3-0.4,0.5-0.8,0.5c-0.2,0-0.4-0.1-0.6-0.2c-0.2-0.1-0.2-0.3-0.3-0.6h-1.5l0.3,5h4.5V17h-3.2
			L32,15.1c0.2,0.2,0.4,0.3,0.6,0.4c0.2,0.1,0.4,0.1,0.7,0.1c0.8,0,1.4-0.3,1.8-0.8c0.4-0.5,0.6-1.3,0.6-2.3c0-1.2-0.2-2.1-0.6-2.7
			S34,8.9,33,8.9c-0.9,0-1.5,0.2-1.9,0.7s-0.6,1.2-0.6,2.3V12.2z"/>
		<path class="st0" d="M36.8,12.3h1.6v-0.1c0-0.7,0.1-1.2,0.2-1.5c0.1-0.3,0.4-0.4,0.7-0.4s0.6,0.1,0.7,0.4c0.1,0.2,0.2,0.7,0.2,1.3
			s-0.1,1.1-0.3,1.3s-0.5,0.3-1,0.3c-0.1,0-0.2,0-0.3,0s-0.1,0-0.2,0v1.2h0.1c0.6,0,0.9,0.1,1.2,0.3c0.2,0.2,0.3,0.5,0.3,1
			s-0.1,0.8-0.2,1c-0.1,0.2-0.3,0.3-0.6,0.3s-0.5-0.1-0.6-0.3c-0.1-0.2-0.2-0.5-0.2-1v-0.2h-1.6V16c0,0,0,0.1,0,0.2
			c0,0.8,0.2,1.4,0.6,1.8c0.4,0.4,1.1,0.6,1.9,0.6c0.8,0,1.4-0.2,1.8-0.6c0.4-0.4,0.6-1,0.6-1.8c0-0.5-0.1-1-0.3-1.3
			s-0.5-0.6-0.8-0.7c0.4-0.1,0.8-0.3,1-0.7s0.3-0.9,0.3-1.5c0-1-0.2-1.8-0.7-2.3s-1.1-0.8-2.1-0.8c-0.9,0-1.5,0.2-1.9,0.7
			s-0.6,1.2-0.6,2.3c0,0,0,0.1,0,0.2C36.8,12.2,36.8,12.3,36.8,12.3z"/>
		<path class="st0" d="M45.2,9.1v6.7h-2.1v1.1c0.8,0,1.4,0.2,1.8,0.5c0.4,0.3,0.7,0.7,0.8,1.3h1.2V9.1H45.2z"/>
		<path class="st0" d="M49.4,9.1c0,0,0,0.1,0,0.2c0,0.1,0,0.1,0,0.2c0,0.7,0.1,1.4,0.4,2.1s0.8,1.3,1.4,1.9c0.1,0.1,0.3,0.3,0.5,0.5
			c0.4,0.4,0.7,0.7,0.8,0.9s0.2,0.4,0.3,0.6c0.1,0.2,0.1,0.5,0.1,0.7c0,0.4-0.1,0.7-0.2,0.9s-0.4,0.3-0.7,0.3s-0.5-0.1-0.7-0.4
			c-0.1-0.2-0.2-0.6-0.2-1.1c0-0.1,0-0.2,0-0.2c0-0.1,0-0.1,0-0.1h-1.6c0,0,0,0.1,0,0.2c0,0.1,0,0.1,0,0.1c0,1,0.2,1.7,0.6,2.2
			s1.1,0.7,2,0.7c0.8,0,1.5-0.2,1.9-0.6s0.7-1,0.7-1.8c0-0.4,0-0.7-0.1-1s-0.2-0.6-0.4-0.9c-0.1-0.2-0.4-0.6-0.9-1
			c-0.2-0.2-0.4-0.4-0.5-0.6l0,0c-0.9-1-1.4-1.7-1.5-2.1h3.3V9.1H49.4z"/>
		<path class="st0" d="M55.7,9.1c0,0,0,0.1,0,0.2c0,0.1,0,0.1,0,0.2c0,0.7,0.1,1.4,0.4,2.1s0.8,1.3,1.4,1.9c0.1,0.1,0.3,0.3,0.5,0.5
			c0.4,0.4,0.7,0.7,0.8,0.9s0.2,0.4,0.3,0.6c0.1,0.2,0.1,0.5,0.1,0.7c0,0.4-0.1,0.7-0.2,0.9s-0.4,0.3-0.7,0.3s-0.5-0.1-0.7-0.4
			c-0.1-0.2-0.2-0.6-0.2-1.1c0-0.1,0-0.2,0-0.2c0-0.1,0-0.1,0-0.1h-1.6c0,0,0,0.1,0,0.2c0,0.1,0,0.1,0,0.1c0,1,0.2,1.7,0.6,2.2
			s1.1,0.7,2,0.7c0.8,0,1.5-0.2,1.9-0.6s0.7-1,0.7-1.8c0-0.4,0-0.7-0.1-1s-0.2-0.6-0.4-0.9c-0.1-0.2-0.4-0.6-0.9-1
			c-0.2-0.2-0.4-0.4-0.5-0.6l0,0c-0.9-1-1.4-1.7-1.5-2.1h3.3V9.1H55.7z"/>
		<path class="st0" d="M65.4,12.7c-0.1-0.2-0.3-0.4-0.5-0.5S64.4,12,64.1,12c-0.7,0-1.3,0.2-1.6,0.7S62,13.9,62,15
			c0,1.3,0.2,2.2,0.6,2.8c0.4,0.5,1,0.8,1.9,0.8c0.5,0,1-0.1,1.3-0.2c0.3-0.2,0.6-0.4,0.9-0.8c0.2-0.3,0.3-0.7,0.4-1.3
			c0.1-0.6,0.1-1.4,0.1-2.5s0-2-0.1-2.5c-0.1-0.6-0.2-1-0.3-1.2c-0.2-0.4-0.5-0.7-0.9-0.9s-0.8-0.3-1.3-0.3c-0.8,0-1.4,0.2-1.8,0.5
			c-0.4,0.3-0.6,0.9-0.6,1.6v0.1h1.6V11c0-0.2,0.1-0.4,0.2-0.6c0.1-0.2,0.3-0.2,0.5-0.2c0.3,0,0.6,0.1,0.7,0.4
			c0.1,0.3,0.2,0.8,0.2,1.6C65.4,12.2,65.4,12.7,65.4,12.7z M65.4,15.4c0,0.7-0.1,1.2-0.2,1.5s-0.4,0.4-0.7,0.4s-0.5-0.1-0.7-0.4
			c-0.1-0.2-0.2-0.8-0.2-1.5c0-0.8,0.1-1.3,0.2-1.5c0.1-0.2,0.3-0.3,0.7-0.3c0.3,0,0.5,0.1,0.7,0.4C65.4,14.1,65.4,14.6,65.4,15.4z"
			/>
		<path class="st0" d="M68.3,11.9v1.5h3v-1.5H68.3z"/>
		<path class="st0" d="M72.3,12.2H74v-0.3c0-0.6,0.1-1,0.2-1.3s0.4-0.4,0.7-0.4c0.3,0,0.6,0.2,0.7,0.5s0.2,0.9,0.2,1.6
			c0,0.7-0.1,1.2-0.2,1.5c-0.2,0.3-0.4,0.5-0.8,0.5c-0.2,0-0.4-0.1-0.6-0.2C74,14,74,13.8,73.9,13.5h-1.5l0.3,5h4.5V17H74l-0.1-1.9
			c0.2,0.2,0.4,0.3,0.6,0.4c0.2,0.1,0.4,0.1,0.7,0.1c0.8,0,1.4-0.3,1.8-0.8s0.6-1.3,0.6-2.3c0-1.2-0.2-2.1-0.6-2.7
			C76.6,9.2,75.9,9,74.9,9C74,9,73.4,9.2,73,9.7s-0.6,1.2-0.6,2.3L72.3,12.2L72.3,12.2z"/>
	</g>
	<g class="st2">
		<path class="st0" d="M101.4,19.3h1.9c0,0,0-0.1,0-0.2s0-0.2,0-0.2c0-1.2-0.3-2.1-0.8-2.7c-0.5-0.6-1.3-0.9-2.3-0.9
			c-0.5,0-0.9,0.1-1.3,0.2c-0.4,0.1-0.7,0.3-0.9,0.6c-0.4,0.4-0.6,0.9-0.8,1.5C97,18.3,97,19.4,97,21c0,1.1,0,1.9,0.1,2.6
			c0.1,0.6,0.2,1.1,0.4,1.4c0.3,0.5,0.6,0.8,1,1s1,0.3,1.6,0.3c1.1,0,1.8-0.3,2.3-0.8c0.5-0.6,0.7-1.4,0.7-2.7h-1.9v0.3
			c0,0.6-0.1,1-0.3,1.3s-0.5,0.4-0.8,0.4c-0.5,0-0.8-0.2-1-0.6s-0.3-1.5-0.3-3.2c0-1.9,0.1-3,0.2-3.4c0.2-0.4,0.5-0.6,0.9-0.6
			s0.7,0.2,0.9,0.5c0.2,0.3,0.3,0.9,0.3,1.8v0H101.4z"/>
		<path class="st0" d="M104.8,15.6v1.9h1.8v-1.9H104.8z"/>
		<path class="st0" d="M107.5,15.6l2.4,10.5h2.6l2.4-10.5h-2.1l-0.5,2.6H110l-0.5-2.6H107.5z M110.4,19.8h1.7l-0.8,4.4L110.4,19.8z"
			/>
		<path class="st0" d="M116.2,15.6v1.9h1.8v-1.9H116.2z"/>
	</g>
</symbol>
<title>status update</title>
<use xlink:href="#LOGO_Flexo_Print"  width="254.7" height="53.2" id="XMLID_1_" x="-127.4" y="-26.6" transform="matrix(4.051 0 0 -4.051 568.3 142.5)" style="overflow:visible;"/>
</svg>
